<?xml version="1.0" encoding="utf-8"?>
<!-- Generator: Adobe Illustrator 25.3.0, SVG Export Plug-In . SVG Version: 6.00 Build 0)  -->
<svg version="1.1" id="Layer_1" xmlns="http://www.w3.org/2000/svg" xmlns:xlink="http://www.w3.org/1999/xlink" x="0px" y="0px"
	 viewBox="0 0 460.3 339.9" style="enable-background:new 0 0 460.3 339.9;" xml:space="preserve">
<style type="text/css">
	.st0{fill:#0AFF0A;}
</style>
<g>
	<path class="st0" d="M333.9,288.9c0.1-11.6,0.4-23.3,0.2-34.9c0-1.1-2-2.5-3.3-3.1c-1.1-0.5-2.6-0.1-4-0.1c-62.3,0-124.6,0-186.9,0
		c-8.6,0-8.5,0-8.6,8.6c-0.1,10-0.4,19.9-0.5,29.9l0.1-0.1c-11.2,0-22.3,0-33.5,0c-7.2,0-7.2,0-7.2-7.5c0-22-0.1-44,0.1-66
		c0.1-4.8-1.4-6.4-6.2-6.2c-9,0.3-18,0.3-27,0c-4.2-0.1-5.4,1.3-5.4,5.4c0.2,22.8-0.1,45.6,0.2,68.5c0.1,4.7-1.5,6-6,5.9
		c-10.2-0.3-20.3-0.2-30.5,0c-3.8,0.1-4.9-1.4-4.9-5c0.1-37,0.1-74,0-110.9c0-3.7,1.2-5,4.9-4.9c10.5,0.2,21-0.1,31.5,0.1
		c3.7,0.1,4.9-1.2,4.9-4.9c-0.2-10.3,0.1-20.7-0.1-31c-0.1-4.2,1.4-5.5,5.5-5.4c8.8,0.2,17.7-0.2,26.5,0.2c4.9,0.2,6.9-1.1,6.6-6.4
		c-0.4-8.6,0.1-17.3-0.2-26c-0.2-4.7,1.1-6.5,6.1-6.3c10,0.4,20,0,30,0.2c3.9,0.1,5.3-1.2,5.2-5.1c-0.4-11.8-0.4-23.6-0.6-35.4
		l-0.1,0.1c2-0.3,3.9-0.8,5.9-0.8c9.2-0.1,18.3,0,27.5,0c8.5,0,8.5,0,8.5,8.2c0,9.3,0.1,18.7-0.1,28c-0.1,3.6,1.1,5,4.8,4.9
		c37.2-0.1,74.3-0.1,111.5,0c3.6,0,4.6-1.4,4.6-4.7c-0.1-10.2,0.1-20.3-0.1-30.5c-0.1-4.4,1-6.3,5.8-6.1c10,0.4,20,0.3,30,0
		c4-0.1,5.6,1,5.5,5.3c-0.2,10,0.1,20-0.1,30c-0.1,4.4,1,6.2,5.8,6c9.5-0.4,19-0.1,28.5-0.1c6.9,0,6.9,0,7,6.7c0,8.3,0,16.7,0,25
		c0,6.7,0,6.7,6.5,6.7c8.8,0,17.7,0.2,26.5-0.1c4.1-0.1,5.6,1.1,5.5,5.3c-0.2,10.3,0,20.7-0.1,31c-0.1,3.7,1.2,5,4.9,4.9
		c10.5-0.2,21,0.1,31.5-0.1c3.8-0.1,4.9,1.3,4.9,4.9c-0.1,37-0.1,74,0,111c0,4.1-1.7,5-5.4,5c-10.2-0.2-20.3-0.2-30.5,0
		c-4.2,0.1-5.5-1.3-5.4-5.5c0.2-21.7,0.1-43.3,0.1-65c0-10.7,0.9-9.1-8.9-9.2c-7.5-0.1-15,0-22.5,0c-7,0-6.9,0-6.9,6.7
		c0,22.3-0.1,44.7,0.1,67c0,4.6-1.3,6.1-5.9,5.9c-12-0.4-24-0.3-36-0.4L333.9,288.9z M313.5,168.3
		C313.5,168.3,313.5,168.3,313.5,168.3c5.6,0,11.3-0.1,17,0c2.7,0,3.9-1.1,3.9-3.9c-0.1-10.3,0.1-20.6-0.2-30.9
		c0-1.2-2.2-3.4-3.5-3.4c-11.3-0.3-22.6-0.3-33.9,0c-1.2,0-3.4,2.2-3.4,3.4c-0.3,10.3-0.1,20.6-0.2,30.9c0,3.2,1.5,3.9,4.3,3.9
		C302.8,168.2,308.1,168.3,313.5,168.3z M151.7,168.3c5.5,0,11-0.1,16.5,0c2.8,0,4.4-0.8,4.3-4c-0.1-9.8-0.1-19.6,0-29.4
		c0-3.6-1.7-5-5.2-5c-10.6,0.1-21.3,0.1-31.9,0c-3,0-4.1,1.2-4.1,4.2c0.1,10,0.1,20,0,29.9c0,3.3,1.3,4.4,4.5,4.3
		C141,168.2,146.4,168.3,151.7,168.3z"/>
	<path class="st0" d="M130.7,289.2c26.1,0,52.2-0.1,78.3-0.2c3.4,0,4.7,1.1,4.6,4.6c-0.2,10.6-0.2,21.3,0,31.9
		c0,3.4-1.1,4.7-4.6,4.7c-24.3-0.1-48.6-0.1-72.9,0c-4.1,0-5.1-1.6-5-5.4c0.2-10.1,0.1-20.3,0.1-30.4c0-1.8-0.2-3.6-0.4-5.4
		C130.9,289.1,130.7,289.2,130.7,289.2z"/>
	<path class="st0" d="M333.7,288.7c0.2,12.8,0.4,25.6,0.5,38.4c0,3.6-2.8,3.1-5.1,3.1c-15.3,0-30.6,0-45.9,0c-8.5,0-17-0.2-25.5,0.1
		c-4.2,0.1-6-1-5.8-5.6c0.3-10,0.3-20,0-30c-0.2-4.8,1.7-5.8,6.1-5.8c25.3,0.1,50.6,0,75.9-0.1C333.9,288.9,333.7,288.7,333.7,288.7
		z"/>
	<path class="st0" d="M334.3,27.2c0-5.5,0.1-11,0-16.4c-0.1-3.3,1.2-4.4,4.4-4.3c10.8,0.1,21.6,0.1,32.4,0c3.1,0,4.5,1.1,4.4,4.4
		c-0.1,10.8-0.1,21.6,0,32.4c0,3.2-1.1,4.5-4.3,4.5c-11.1-0.1-22.3-0.1-33.4,0c-2.6,0-3.5-1-3.5-3.5
		C334.4,38.5,334.3,32.8,334.3,27.2z"/>
	<path class="st0" d="M130.7,48.3c-8.4-0.2-16.9-0.4-25.3-0.7c-4.9-0.2-11.4,1.1-14.2-1.4c-2.5-2.3-0.9-9.1-1-13.8
		c-0.1-7,0.1-14-0.1-20.9c-0.1-3.5,0.8-5.1,4.7-5c10.6,0.2,21.3,0,31.9,0.2c1.5,0,4.3,1.6,4.3,2.5c0.1,13.1-0.2,26.2-0.4,39.3
		C130.6,48.4,130.7,48.3,130.7,48.3z"/>
	<path d="M150.5,168.3c-5.3,0-10.6-0.1-16,0c-2.8,0.1-4.4-0.7-4.3-3.9c0.1-10.3-0.1-20.6,0.2-30.9c0-1.2,2.2-3.4,3.4-3.4
		c11.3-0.3,22.6-0.3,33.9,0c1.2,0,3.4,2.2,3.4,3.4c0.3,10.3,0.1,20.6,0.2,30.9c0,2.8-1.2,3.9-3.9,3.9
		C161.8,168.2,156.1,168.3,150.5,168.3C150.5,168.3,150.5,168.3,150.5,168.3z"/>
</g>
<path d="M312.2,169.2c-5.3,0-10.6-0.1-16,0c-2.8,0.1-4.4-0.7-4.3-3.9c0.1-10.3-0.1-20.6,0.2-30.9c0-1.2,2.2-3.4,3.4-3.4
	c11.3-0.3,22.6-0.3,33.9,0c1.2,0,3.4,2.2,3.5,3.4c0.3,10.3,0.1,20.6,0.2,30.9c0,2.8-1.2,3.9-3.9,3.9
	C323.5,169.1,317.9,169.2,312.2,169.2C312.2,169.2,312.2,169.2,312.2,169.2z"/>
</svg>
